<svg xmlns="http://www.w3.org/2000/svg" xmlns:xlink="http://www.w3.org/1999/xlink"
  viewBox="0 0 106.7 43">
  <defs>
    <style>
      .cls-1{fill:none;}.cls-2{isolation:isolate;}.cls-12,.cls-3{fill:#4f46e5;}.cls-4{clip-path:url(#clip-path);}.cls-5,.cls-6,.cls-7,.cls-8,.cls-9{opacity:0.3;}.cls-5{fill:url(#linear-gradient);}.cls-6{fill:url(#linear-gradient-2);}.cls-7{fill:url(#linear-gradient-3);}.cls-8{fill:url(#linear-gradient-4);}.cls-9{fill:url(#radial-gradient);}.cls-10,.cls-11{opacity:0.5;mix-blend-mode:overlay;}.cls-10{fill:url(#Degradado_sin_nombre_5);}.cls-11{fill:#6366f1;}.cls-12{font-size:36px;font-family:Montserrat-SemiBold,
      Montserrat;font-weight:700;letter-spacing:-0.05em;}.cls-13{letter-spacing:-0.05em;}.cls-14{letter-spacing:-0.07em;}</style>
    <clipPath id="clip-path" transform="translate(-0.51 3.41)">
      <circle class="cls-1" cx="15.95" cy="18.05" r="13.95"
        transform="translate(-5.24 29.49) rotate(-76.88)" />
    </clipPath>
    <linearGradient id="linear-gradient" x1="0.51" y1="15.34" x2="35.26" y2="15.34"
      gradientUnits="userSpaceOnUse">
      <stop offset="0" stop-color="#19002a" />
      <stop offset="0.99" stop-color="#5b008b" stop-opacity="0" />
    </linearGradient>
    <linearGradient id="linear-gradient-2" x1="-368.9" y1="30.49" x2="-334.14" y2="30.49"
      gradientTransform="matrix(-0.9, 0.43, -0.43, -0.9, -286.25, 195.28)"
      xlink:href="#linear-gradient" />
    <linearGradient id="linear-gradient-3" x1="-213.4" y1="-118.77" x2="-178.64" y2="-118.77"
      gradientTransform="translate(-83.06 220.43) rotate(84.69)" xlink:href="#linear-gradient" />
    <linearGradient id="linear-gradient-4" x1="-233.49" y1="243.69" x2="-198.73" y2="243.69"
      gradientTransform="translate(-303.25 -46.05) rotate(-121.01)" xlink:href="#linear-gradient" />
    <radialGradient id="radial-gradient" cx="24.42" cy="4.4" r="29.29"
      gradientTransform="translate(29.91 -1.59) rotate(76.88)" gradientUnits="userSpaceOnUse">
      <stop offset="0" stop-color="#e46efa" />
      <stop offset="0.99" stop-color="#5b008b" stop-opacity="0" />
    </radialGradient>
    <radialGradient id="Degradado_sin_nombre_5" cx="24.42" cy="4.4" r="29.29"
      gradientTransform="translate(29.91 -1.59) rotate(76.88)" gradientUnits="userSpaceOnUse">
      <stop offset="0" stop-color="#fff" />
      <stop offset="0.12" stop-color="#e4f9ff" stop-opacity="0.85" />
      <stop offset="0.36" stop-color="#adedff" stop-opacity="0.55" />
      <stop offset="0.58" stop-color="#81e4ff" stop-opacity="0.32" />
      <stop offset="0.77" stop-color="#62ddff" stop-opacity="0.14" />
      <stop offset="0.91" stop-color="#4ed9ff" stop-opacity="0.04" />
      <stop offset="1" stop-color="#47d7ff" stop-opacity="0" />
    </radialGradient>
  </defs>
  <title>brand-indigo</title>
  <g class="cls-2">
    <g id="Layer_1" data-name="Layer 1">
      <circle class="cls-3" cx="15.95" cy="18.05" r="13.95"
        transform="translate(-5.75 32.9) rotate(-76.88)" />
      <g class="cls-4">
        <path class="cls-5"
          d="M33.5,14.43c-.72-1.3-.43-2.88-1-4.23a27.84,27.84,0,0,0-1.84-2.78,17.06,17.06,0,0,0-1-2c-1.57-2.13-4-1.27-6.08-2.31C21.22,2,20.69.36,17.56.76a21.4,21.4,0,0,1-5.18.16A4.35,4.35,0,0,0,8.11,2.7c-.54.63-1,1.32-1.52,2C5.76,5.79,4.91,7,3.5,7.37a5.12,5.12,0,0,1-2.27,0,17.5,17.5,0,0,0-.72,4.67,8.47,8.47,0,0,0,.91-.33,4.75,4.75,0,0,0,2.2-1.55c.55-.73,1.09-.84,1.8-1.39,1-.82.78-2,1.47-2.93.49-.67,1.42-.94,2-1.42s1.18-1.53,2-2a3.36,3.36,0,0,1,1.93-.3,12,12,0,0,1,3,.39c.61.19,1.13.55,1.72.79a12.86,12.86,0,0,0,2,.52c.4.09.77.25,1.16.36a7,7,0,0,0,2.27.13,3.79,3.79,0,0,1,2.1.72c.86.53,1.64,1.15,2.45,1.74a7.57,7.57,0,0,1,2.2,1.68,4.27,4.27,0,0,1,.55,2.19,10.47,10.47,0,0,1,.25,2.84,3.62,3.62,0,0,0-.11,1.93,9.94,9.94,0,0,1,.35,1.05,4.82,4.82,0,0,1-.53,2.43,2.42,2.42,0,0,1-.27,1.58A6.76,6.76,0,0,1,27.84,23a6.21,6.21,0,0,0-1.24.61,7.2,7.2,0,0,0-.88,1.1,3.54,3.54,0,0,1-1.33,1c-1.31.61-1.83,2-3.26,2.27-1,.17-2.33.53-3.27,0a13.69,13.69,0,0,0-2.18-1.31,7.29,7.29,0,0,1-1.84-.84c-.73-.53-1.08-1.25-2-1.58a3.45,3.45,0,0,1-1.28-.57,4.15,4.15,0,0,1-1-2.59,21.92,21.92,0,0,1-.79-4.54A6.61,6.61,0,0,1,10.1,13.3a5.16,5.16,0,0,1,1.53-1.45,2.51,2.51,0,0,0,.24-.19,8.59,8.59,0,0,1,.68-.67c.24-.28.46-.59.71-.91a3.63,3.63,0,0,1,2.89-1.3,7.49,7.49,0,0,1,3.17.63A5.12,5.12,0,0,1,22,11.49c.7,1.07,1.17,1.78.9,3.06s-.24,2.36-1.06,3.5c-.61.86-1.16,1.8-2.3,1.88-.85.07-1.7.41-2.38-.19a2.59,2.59,0,0,1-1.05-1.82,5.27,5.27,0,0,1,.16-2c.22-.66.77-1.1,1-1.76a.43.43,0,0,1,0-.07,1,1,0,0,0-.25-.25.56.56,0,0,0-.17-.09c-.95,0-1.95,2.27-2.08,3a4.07,4.07,0,0,0,1.25,4,6.38,6.38,0,0,0,3.33.76,5.18,5.18,0,0,0,3.75-2.18,6.39,6.39,0,0,0,.57-7.28A8.77,8.77,0,0,0,21.26,10a8.2,8.2,0,0,0-3.87-1.65,10.7,10.7,0,0,0-3.81.42c-1.2.37-1.78,1.35-2.79,2a8.44,8.44,0,0,0-3.17,5.45,15.83,15.83,0,0,0-.11,3.64c0,.43-.12.86-.1,1.28A9.55,9.55,0,0,0,8,23.23c.1.33.1.64.17,1a8.19,8.19,0,0,0,.95,2c.08.16.54,1.42.18,1.41a.23.23,0,0,1,.2.11,18.32,18.32,0,0,0,1.67.81,2.62,2.62,0,0,1,.11-.69,2,2,0,0,1,3.42-.44,18,18,0,0,1,1,2.17l.16.23a17.37,17.37,0,0,0,11.25-2.38c0-1.32-.07-2.66,1.13-3.43a4,4,0,0,1,3.1-.14,17.58,17.58,0,0,0,3.85-7.7A5.55,5.55,0,0,1,33.5,14.43Z"
          transform="translate(-0.51 3.41)" />
        <path class="cls-6"
          d="M3.6,23c1.21.87,1.63,2.41,2.73,3.38A29.35,29.35,0,0,0,9.2,28.06a17.35,17.35,0,0,0,1.73,1.34c2.34,1.23,4.15-.59,6.48-.56,2.65,0,3.83,1.26,6.48-.46A21.78,21.78,0,0,1,28.48,26a4.35,4.35,0,0,0,3.08-3.45c.22-.81.35-1.63.51-2.45a6.3,6.3,0,0,1,1.62-3.77,5.12,5.12,0,0,1,2.05-1,17.31,17.31,0,0,0-1.38-4.53c-.18.16-.38.38-.68.7a4.79,4.79,0,0,0-1.31,2.34,7.1,7.1,0,0,1-1,2c-.58,1.19.16,2.13-.05,3.28-.15.81-.87,1.45-1.22,2.16s-.41,1.89-.94,2.68a3.38,3.38,0,0,1-1.61,1.11,12.27,12.27,0,0,1-2.91,1c-.63.09-1.25,0-1.89,0a13.08,13.08,0,0,0-2.05.42c-.4.09-.8.11-1.21.18a6.88,6.88,0,0,0-2.09.86,3.89,3.89,0,0,1-2.21.27c-1-.11-2-.33-3-.5a8,8,0,0,1-2.71-.57A4.35,4.35,0,0,1,8.05,25,10.69,10.69,0,0,1,6.6,22.59a3.72,3.72,0,0,0-.74-1.8A9.45,9.45,0,0,1,5.09,20a4.94,4.94,0,0,1-.58-2.42A2.46,2.46,0,0,1,4.07,16,6.69,6.69,0,0,1,5,12.76a6.8,6.8,0,0,0,.86-1.08,7.25,7.25,0,0,0,.31-1.38,3.76,3.76,0,0,1,.75-1.51c.92-1.11.77-2.62,2-3.46.82-.57,1.87-1.48,2.95-1.4a14.26,14.26,0,0,0,2.53.24,6.91,6.91,0,0,1,2,0c.89.17,1.51.66,2.49.56a3.43,3.43,0,0,1,1.39,0c.95.27,1.45,1.17,2,1.91A21.36,21.36,0,0,1,24.9,10.3a6.59,6.59,0,0,1,.27,3.55,5.26,5.26,0,0,1-.75,2c-.05.09-.09.18-.13.27A8.7,8.7,0,0,1,24,17c-.09.36-.16.72-.25,1.13a3.64,3.64,0,0,1-2,2.42,7.42,7.42,0,0,1-3.13.81c-1.45,0-2,.08-3.33-.71-1.1-.66-1.82-1.09-2.14-2.36s-.81-2.23-.57-3.61c.18-1,.28-2.13,1.26-2.7.74-.43,1.36-1.1,2.23-.86a2.6,2.6,0,0,1,1.74,1.19,5.44,5.44,0,0,1,.72,1.85c.07.69-.23,1.33-.15,2,0,0,0,0,0,.07a.93.93,0,0,0,.33.12h.2c.85-.42.76-2.9.56-3.63a4.11,4.11,0,0,0-2.88-3.11,6.47,6.47,0,0,0-3.33.76A5.15,5.15,0,0,0,10.76,14a6.39,6.39,0,0,0,2.63,6.81,8.67,8.67,0,0,0,3.16.85,8.09,8.09,0,0,0,4.2-.19,10.85,10.85,0,0,0,3.24-2c.93-.85,1-2,1.65-3a8.44,8.44,0,0,0,.49-6.28A14.83,14.83,0,0,0,24.65,6.8c-.21-.38-.26-.84-.46-1.21A9.63,9.63,0,0,0,22.72,4c-.23-.25-.36-.53-.57-.79a7.8,7.8,0,0,0-1.73-1.42c-.14-.11-1.11-1-.78-1.19a.26.26,0,0,1-.23,0,16.49,16.49,0,0,0-1.86,0,2.41,2.41,0,0,1,.2.68,2,2,0,0,1-2.88,1.88C14.16,2.79,13.65,2,13,1.62l-.25-.14a17.5,17.5,0,0,0-7.92,5.4A18,18,0,0,0,3.65,8.5c.53,1.2,1.21,2.37.46,3.58a4,4,0,0,1-2.72,1.47,17.68,17.68,0,0,0-.14,8.61A5.59,5.59,0,0,1,3.6,23Z"
          transform="translate(-0.51 3.41)" />
        <path class="cls-7"
          d="M19.39,29.71c1.23-.83,2.83-.69,4.12-1.38a30.48,30.48,0,0,0,2.6-2.09A18.67,18.67,0,0,0,28,25.08c2-1.76.9-4.1,1.73-6.27,1-2.47,2.52-3.15,1.82-6.24a21.64,21.64,0,0,1-.63-5.13,4.37,4.37,0,0,0-2.17-4.09C28,2.87,27.32,2.46,26.61,2c-1.18-.73-2.45-1.47-3-2.84a5,5,0,0,1-.21-2.25,17.37,17.37,0,0,0-4.72-.29,8.82,8.82,0,0,0,.42.88,4.65,4.65,0,0,0,1.74,2c.78.48.93,1,1.55,1.67.91,1,2,.59,3.06,1.19.7.43,1.05,1.33,1.6,1.9s1.63,1,2.18,1.81A3.38,3.38,0,0,1,29.74,8a12.12,12.12,0,0,1-.11,3.07c-.13.62-.44,1.17-.63,1.78a13.11,13.11,0,0,0-.32,2.07c-.06.4-.18.79-.26,1.19a7.18,7.18,0,0,0,.08,2.27A3.73,3.73,0,0,1,28,20.56c-.44.9-1,1.74-1.5,2.6A8,8,0,0,1,25,25.51a4.36,4.36,0,0,1-2.13.74,10.47,10.47,0,0,1-2.8.52,3.55,3.55,0,0,0-1.94.07,10,10,0,0,1-1,.44,4.87,4.87,0,0,1-2.47-.3,2.44,2.44,0,0,1-1.6-.12,6.8,6.8,0,0,1-2.77-2,5.87,5.87,0,0,0-.71-1.18,7.77,7.77,0,0,0-1.18-.78,3.48,3.48,0,0,1-1.15-1.23c-.73-1.24-2.2-1.63-2.57-3-.25-1-.74-2.27-.28-3.26a15.09,15.09,0,0,0,1.1-2.29,7.58,7.58,0,0,1,.66-1.91c.47-.78,1.14-1.2,1.39-2.14A3.44,3.44,0,0,1,8,7.73a4.15,4.15,0,0,1,2.49-1.19,21,21,0,0,1,4.45-1.21,6.67,6.67,0,0,1,3.42,1A5.37,5.37,0,0,1,19.94,7.7l.21.22c.25.19.5.4.73.61s.62.41,1,.63a3.64,3.64,0,0,1,1.56,2.75,7.32,7.32,0,0,1-.34,3.22A5.08,5.08,0,0,1,21.26,18c-1,.8-1.66,1.33-3,1.18s-2.37,0-3.58-.73c-.91-.53-1.9-1-2.09-2.11-.14-.85-.56-1.67,0-2.4a2.61,2.61,0,0,1,1.72-1.21,5.79,5.79,0,0,1,2,0c.67.17,1.17.68,1.85.84l.06,0a.87.87,0,0,0,.23-.27,1.42,1.42,0,0,0,.08-.18c-.1-.94-2.45-1.73-3.21-1.79A4.11,4.11,0,0,0,11.39,13,6.4,6.4,0,0,0,11,16.34a5.13,5.13,0,0,0,2.52,3.53,6.38,6.38,0,0,0,7.3-.1,8.71,8.71,0,0,0,1.89-2.65,8.23,8.23,0,0,0,1.29-4,11,11,0,0,0-.78-3.75c-.47-1.17-1.51-1.65-2.26-2.59A8.43,8.43,0,0,0,15.2,4.11a15.81,15.81,0,0,0-3.64.23c-.43.07-.87,0-1.29,0a9.45,9.45,0,0,0-2,.82c-.32.13-.63.16-.94.26A7.64,7.64,0,0,0,5.39,6.57C5.24,6.66,4,7.24,4,6.88a.24.24,0,0,1-.1.21,18.21,18.21,0,0,0-.65,1.74,2.72,2.72,0,0,1,.7.05,2,2,0,0,1,.75,3.36,18.3,18.3,0,0,1-2.06,1.22l-.22.19A17.52,17.52,0,0,0,4.74,23a17.84,17.84,0,0,0,1.1,1.67c1.32-.08,2.65-.31,3.52.82a4,4,0,0,1,.43,3.06,17.62,17.62,0,0,0,8,3.13A5.39,5.39,0,0,1,19.39,29.71Z"
          transform="translate(-0.51 3.41)" />
        <path class="cls-8"
          d="M8.12.73C7.37,2,5.87,2.58,5,3.77a27.77,27.77,0,0,0-1.44,3A15.56,15.56,0,0,0,2.4,8.63c-1,2.44,1,4.08,1.15,6.4.22,2.64-.9,3.93,1.07,6.41a21.61,21.61,0,0,1,2.79,4.35,4.37,4.37,0,0,0,3.73,2.74c.82.14,1.66.2,2.48.28,1.38.15,2.84.26,3.91,1.27A5.18,5.18,0,0,1,18.7,32a17.46,17.46,0,0,0,4.37-1.78c-.17-.17-.41-.35-.75-.62a4.82,4.82,0,0,0-2.46-1.08,7.54,7.54,0,0,1-2.12-.83c-1.24-.47-2.1.35-3.27.25a9.24,9.24,0,0,1-2.27-1c-.88-.34-1.92-.22-2.75-.68a3.34,3.34,0,0,1-1.25-1.5A12.11,12.11,0,0,1,7,22c-.15-.62-.11-1.25-.21-1.88a13.1,13.1,0,0,0-.6-2c-.13-.39-.19-.79-.29-1.19a6.85,6.85,0,0,0-1.06-2,4,4,0,0,1-.47-2.18c0-1,.15-2,.23-3A7.92,7.92,0,0,1,4.88,7a4.31,4.31,0,0,1,1.6-1.6,10.44,10.44,0,0,1,2.3-1.68,3.67,3.67,0,0,0,1.72-.9,7.16,7.16,0,0,1,.71-.84,4.89,4.89,0,0,1,2.35-.8,2.45,2.45,0,0,1,1.5-.58,6.73,6.73,0,0,1,3.35.58,6.81,6.81,0,0,0,1.16.76,8.12,8.12,0,0,0,1.4.18,3.61,3.61,0,0,1,1.57.61c1.2.81,2.68.52,3.63,1.63.64.76,1.65,1.72,1.66,2.8a14.37,14.37,0,0,0,0,2.54,7.64,7.64,0,0,1,.23,2c-.08.9-.51,1.57-.33,2.53a3.42,3.42,0,0,1,.18,1.38c-.19,1-1,1.56-1.73,2.16a21.25,21.25,0,0,1-3.48,3,6.6,6.6,0,0,1-3.51.6,5.35,5.35,0,0,1-2-.56l-.28-.12a7,7,0,0,1-.93-.23c-.36-.06-.74-.09-1.14-.15a3.61,3.61,0,0,1-2.61-1.8,7.57,7.57,0,0,1-1.09-3,5.16,5.16,0,0,1,.39-3.39c.56-1.15.92-1.91,2.16-2.34s2.15-1,3.54-.9c1.05.08,2.15.07,2.8,1,.5.7,1.23,1.25,1.07,2.14a2.57,2.57,0,0,1-1,1.84,5.41,5.41,0,0,1-1.78.89c-.67.14-1.34-.1-2,0h-.07a.82.82,0,0,0-.09.35.61.61,0,0,0,0,.19c.49.81,2.95.5,3.66.22a4.09,4.09,0,0,0,2.83-3.15,6.56,6.56,0,0,0-1.06-3.25A5.21,5.21,0,0,0,17.72,7a6.38,6.38,0,0,0-6.53,3.25,8.91,8.91,0,0,0-.56,3.22,8.14,8.14,0,0,0,.58,4.17,10.77,10.77,0,0,0,2.33,3c.93.85,2.07.83,3.16,1.36A8.43,8.43,0,0,0,23,22a15.64,15.64,0,0,0,3.17-1.78c.36-.25.81-.34,1.16-.58A8.88,8.88,0,0,0,28.78,18c.23-.25.5-.41.73-.64a7.67,7.67,0,0,0,1.26-1.85c.09-.16.94-1.2,1.11-.88a.27.27,0,0,1,0-.23,16.47,16.47,0,0,0-.16-1.86,2.39,2.39,0,0,1-.65.26,2,2,0,0,1-2.14-2.7,18.63,18.63,0,0,1,1.33-2c.05-.09.08-.18.12-.27A17.59,17.59,0,0,0,24.25.47a17.77,17.77,0,0,0-1.72-1C21.39.08,20.29.87,19,.23a4,4,0,0,1-1.72-2.57,17.57,17.57,0,0,0-8.58.66A5.53,5.53,0,0,1,8.12.73Z"
          transform="translate(-0.51 3.41)" />
      </g>
      <circle class="cls-9" cx="15.95" cy="18.05" r="13.95"
        transform="translate(-5.75 32.9) rotate(-76.88)" />
      <circle class="cls-10" cx="15.95" cy="18.05" r="13.95"
        transform="translate(-5.75 32.9) rotate(-76.88)" />
      <circle class="cls-10" cx="15.95" cy="18.05" r="13.95"
        transform="translate(-5.75 32.9) rotate(-76.88)" />
      <circle class="cls-11" cx="15.95" cy="18.05" r="13.95"
        transform="translate(-5.75 32.9) rotate(-76.88)" />
      <text class="cls-12" transform="translate(28.22 33.46)">r<tspan class="cls-13" x="13.14" y="0">
        bi</tspan><tspan class="cls-14" x="44.64" y="0">t</tspan><tspan class="cls-13" x="57.46"
          y="0">e</tspan></text>
    </g>
  </g>
</svg>
