<svg xmlns="http://www.w3.org/2000/svg" xmlns:xlink="http://www.w3.org/1999/xlink"
  viewBox="0 0 30.18 30.35">
  <defs>
    <style>
      .cls-1{fill:none;}.cls-2{isolation:isolate;}.cls-3{fill:url(#radial-gradient);}.cls-4{clip-path:url(#clip-path);}.cls-5,.cls-6,.cls-7,.cls-8,.cls-9{opacity:0.3;}.cls-5{fill:url(#linear-gradient);}.cls-6{fill:url(#linear-gradient-2);}.cls-7{fill:url(#linear-gradient-3);}.cls-8{fill:url(#linear-gradient-4);}.cls-9{fill:url(#radial-gradient-2);}.cls-10{opacity:0.5;mix-blend-mode:overlay;fill:url(#Degradado_sin_nombre_5);}</style>
    <radialGradient id="radial-gradient" cx="20.48" cy="6.69" r="25.1"
      gradientUnits="userSpaceOnUse">
      <stop offset="0" stop-color="#8b5cf6" />
      <stop offset="0.99" stop-color="#7e22ce" />
    </radialGradient>
    <clipPath id="clip-path" transform="translate(1.28 6.33)">
      <circle class="cls-1" cx="11.95" cy="12.05" r="11.95" />
    </clipPath>
    <linearGradient id="linear-gradient" x1="-1.28" y1="9.72" x2="28.5" y2="9.72"
      gradientUnits="userSpaceOnUse">
      <stop offset="0" stop-color="#19002a" />
      <stop offset="0.99" stop-color="#5b008b" stop-opacity="0" />
    </linearGradient>
    <linearGradient id="linear-gradient-2" x1="-442.31" y1="7.75" x2="-412.53" y2="7.75"
      gradientTransform="matrix(-0.9, 0.43, -0.43, -0.9, -368.7, 202.08)"
      xlink:href="#linear-gradient" />
    <linearGradient id="linear-gradient-3" x1="-248.86" y1="-162.4" x2="-219.09" y2="-162.4"
      gradientTransform="translate(-127.15 256.8) rotate(84.69)" xlink:href="#linear-gradient" />
    <linearGradient id="linear-gradient-4" x1="-293.04" y1="269.82" x2="-263.26" y2="269.82"
      gradientTransform="translate(-361.74 -91.14) rotate(-121.01)" xlink:href="#linear-gradient" />
    <radialGradient id="radial-gradient-2" cx="20.48" cy="6.69" r="25.1"
      gradientUnits="userSpaceOnUse">
      <stop offset="0" stop-color="#e46efa" />
      <stop offset="0.99" stop-color="#5b008b" stop-opacity="0" />
    </radialGradient>
    <radialGradient id="Degradado_sin_nombre_5" cx="20.48" cy="6.69" r="25.1"
      gradientUnits="userSpaceOnUse">
      <stop offset="0" stop-color="#fff" />
      <stop offset="0.12" stop-color="#e4f9ff" stop-opacity="0.85" />
      <stop offset="0.36" stop-color="#adedff" stop-opacity="0.55" />
      <stop offset="0.58" stop-color="#81e4ff" stop-opacity="0.32" />
      <stop offset="0.77" stop-color="#62ddff" stop-opacity="0.14" />
      <stop offset="0.91" stop-color="#4ed9ff" stop-opacity="0.04" />
      <stop offset="1" stop-color="#47d7ff" stop-opacity="0" />
    </radialGradient>
  </defs>
  <title>orbite</title>
  <g class="cls-2">
    <g id="Layer_1" data-name="Layer 1">
      <circle class="cls-3" cx="13.23" cy="18.38" r="11.95" />
      <g class="cls-4">
        <path class="cls-5"
          d="M27,9c-.61-1.12-.36-2.47-.85-3.63a26.41,26.41,0,0,0-1.57-2.38,17.63,17.63,0,0,0-.85-1.68C22.37-.56,20.29.18,18.5-.71c-2-1-2.49-2.4-5.17-2a18.26,18.26,0,0,1-4.43.13A3.74,3.74,0,0,0,5.24-1.1C4.77-.56,4.36,0,3.94.6A5.42,5.42,0,0,1,1.28,2.9a4.38,4.38,0,0,1-1.94,0,15,15,0,0,0-.62,4A6.36,6.36,0,0,0-.5,6.62,4,4,0,0,0,1.38,5.3c.48-.63.94-.72,1.55-1.2.89-.7.67-1.69,1.26-2.51C4.61,1,5.4.8,5.94.38S7-.93,7.65-1.34A2.93,2.93,0,0,1,9.3-1.6a10.93,10.93,0,0,1,2.61.34c.52.16,1,.47,1.47.68a11.67,11.67,0,0,0,1.74.44c.34.08.66.21,1,.31a6.06,6.06,0,0,0,1.94.11,3.28,3.28,0,0,1,1.8.62c.73.45,1.4,1,2.1,1.48a6.53,6.53,0,0,1,1.88,1.45,3.66,3.66,0,0,1,.47,1.87,9.1,9.1,0,0,1,.22,2.43,3.13,3.13,0,0,0-.1,1.66,6.78,6.78,0,0,1,.3.9,4.23,4.23,0,0,1-.45,2.08,2.1,2.1,0,0,1-.23,1.35,5.92,5.92,0,0,1-1.91,2.21,6.17,6.17,0,0,0-1.07.51,7,7,0,0,0-.75.95,3.18,3.18,0,0,1-1.14.88c-1.12.53-1.56,1.74-2.79,1.95-.85.14-2,.45-2.8,0a13,13,0,0,0-1.87-1.12,6.6,6.6,0,0,1-1.58-.71c-.62-.46-.92-1.07-1.71-1.36a2.93,2.93,0,0,1-1.1-.48,3.63,3.63,0,0,1-.82-2.22,19.22,19.22,0,0,1-.68-3.89A5.7,5.7,0,0,1,6.94,8,4.43,4.43,0,0,1,8.25,6.74l.21-.16A6.25,6.25,0,0,1,9,6c.21-.24.4-.5.62-.77a3.09,3.09,0,0,1,2.47-1.12,6.51,6.51,0,0,1,2.72.54,4.39,4.39,0,0,1,2.31,1.78,3.09,3.09,0,0,1,.77,2.62,6.77,6.77,0,0,1-.9,3c-.53.73-1,1.54-2,1.61-.74.06-1.47.35-2.05-.16a2.28,2.28,0,0,1-.9-1.57,4.79,4.79,0,0,1,.14-1.69c.19-.56.67-.94.86-1.51l0-.05a.63.63,0,0,0-.21-.22l-.15-.08C12,8.39,11.1,10.33,11,11a3.52,3.52,0,0,0,1.07,3.47,5.42,5.42,0,0,0,2.85.65,4.43,4.43,0,0,0,3.21-1.87A5.47,5.47,0,0,0,18.62,7,7.64,7.64,0,0,0,16.5,5.16a6.93,6.93,0,0,0-3.32-1.41,9.25,9.25,0,0,0-3.26.36c-1,.31-1.52,1.16-2.39,1.72a7.23,7.23,0,0,0-2.71,4.66,13.06,13.06,0,0,0-.1,3.12c0,.38-.11.75-.08,1.11a7.87,7.87,0,0,0,.54,1.77c.08.28.08.55.14.82a6.59,6.59,0,0,0,.81,1.74c.07.14.47,1.23.16,1.21a.18.18,0,0,1,.17.1c.47.25.94.49,1.43.7a2.35,2.35,0,0,1,.1-.6,1.68,1.68,0,0,1,2.92-.38,13.76,13.76,0,0,1,.88,1.86l.15.21a15.09,15.09,0,0,0,8.12-1.24,16.82,16.82,0,0,0,1.51-.81c0-1.12-.06-2.28,1-2.93A3.44,3.44,0,0,1,25.19,17a15.11,15.11,0,0,0,3.31-6.6A4.7,4.7,0,0,1,27,9Z"
          transform="translate(1.28 6.33)" />
        <path class="cls-6"
          d="M1.37,16.26c1,.75,1.4,2.07,2.34,2.9a25.21,25.21,0,0,0,2.45,1.47,15.91,15.91,0,0,0,1.49,1.14c2,1.06,3.56-.5,5.55-.48,2.27,0,3.28,1.08,5.55-.39a18.91,18.91,0,0,1,3.94-2,3.73,3.73,0,0,0,2.63-3c.19-.69.3-1.39.44-2.09a5.45,5.45,0,0,1,1.39-3.23,4.6,4.6,0,0,1,1.75-.85,14.79,14.79,0,0,0-1.18-3.87,7,7,0,0,0-.58.6,4,4,0,0,0-1.12,2,6.31,6.31,0,0,1-.87,1.74c-.51,1,.13,1.82,0,2.81-.13.69-.75,1.24-1.05,1.85a17.2,17.2,0,0,1-.8,2.29,2.87,2.87,0,0,1-1.38,1,10.85,10.85,0,0,1-2.49.82c-.54.08-1.08,0-1.62,0a10.45,10.45,0,0,0-1.75.36c-.35.07-.7.09-1,.15a6,6,0,0,0-1.8.74,3.21,3.21,0,0,1-1.89.22c-.86-.09-1.69-.28-2.53-.43a6.6,6.6,0,0,1-2.33-.48A3.65,3.65,0,0,1,5.19,18a9.12,9.12,0,0,1-1.25-2.09A3.14,3.14,0,0,0,3.3,14.4a8.5,8.5,0,0,1-.66-.68,4.19,4.19,0,0,1-.49-2.07,2.11,2.11,0,0,1-.38-1.32,5.72,5.72,0,0,1,.77-2.81,6,6,0,0,0,.73-.93,5.94,5.94,0,0,0,.27-1.18,3.26,3.26,0,0,1,.64-1.29c.79-1,.66-2.25,1.68-3C6.56.66,7.46-.12,8.39,0a12.94,12.94,0,0,0,2.16.19,6.34,6.34,0,0,1,1.74,0c.76.14,1.3.56,2.13.48a2.86,2.86,0,0,1,1.2,0c.81.23,1.24,1,1.7,1.64a18.09,18.09,0,0,1,2.3,3.21,5.61,5.61,0,0,1,.23,3,4.52,4.52,0,0,1-.64,1.69l-.12.23a5.41,5.41,0,0,1-.27.77c-.08.31-.14.62-.22,1a3.06,3.06,0,0,1-1.74,2.07,6.27,6.27,0,0,1-2.68.69,4.35,4.35,0,0,1-2.86-.6c-.94-.56-1.56-.94-1.83-2A6.78,6.78,0,0,1,9,9.15c.15-.89.23-1.82,1.07-2.31.64-.36,1.17-.94,1.92-.74a2.27,2.27,0,0,1,1.48,1,4.7,4.7,0,0,1,.62,1.59c.06.59-.19,1.14-.13,1.73,0,0,0,0,0,.06a.68.68,0,0,0,.29.11h.16c.73-.36.66-2.48.48-3.11a3.51,3.51,0,0,0-2.46-2.67,5.63,5.63,0,0,0-2.86.66A4.47,4.47,0,0,0,7.5,8.57a5.5,5.5,0,0,0,2.26,5.84,7.89,7.89,0,0,0,2.7.73,7,7,0,0,0,3.6-.17,9.36,9.36,0,0,0,2.78-1.74c.8-.73.88-1.7,1.41-2.59a7.26,7.26,0,0,0,.43-5.38,13.76,13.76,0,0,0-1.27-2.85c-.19-.32-.23-.71-.4-1A7.76,7.76,0,0,0,17.75,0c-.2-.22-.31-.46-.49-.68a6.64,6.64,0,0,0-1.48-1.22c-.12-.09-.95-.9-.66-1a.23.23,0,0,1-.2,0,14.06,14.06,0,0,0-1.59,0,2.41,2.41,0,0,1,.17.58A1.69,1.69,0,0,1,11-.74C10.42-1,10-1.66,9.42-2l-.21-.12a14.83,14.83,0,0,0-7.8,6c.46,1,1,2,.4,3.07A3.46,3.46,0,0,1-.52,8.2a15,15,0,0,0-.12,7.37A4.87,4.87,0,0,1,1.37,16.26Z"
          transform="translate(1.28 6.33)" />
        <path class="cls-7"
          d="M14.9,22c1-.71,2.42-.59,3.53-1.19a25,25,0,0,0,2.23-1.79,14.53,14.53,0,0,0,1.59-1c1.69-1.51.76-3.51,1.48-5.37.82-2.12,2.16-2.7,1.56-5.34A18.73,18.73,0,0,1,24.75,3a3.72,3.72,0,0,0-1.86-3.5c-.58-.42-1.2-.77-1.81-1.14a5.4,5.4,0,0,1-2.54-2.43A4.29,4.29,0,0,1,18.36-6a15.26,15.26,0,0,0-4-.24,7.63,7.63,0,0,0,.36.75,4,4,0,0,0,1.49,1.75c.67.41.8.87,1.34,1.43.78.83,1.75.51,2.61,1C20.71-1,21-.2,21.48.29s1.4.89,1.87,1.55a3,3,0,0,1,.42,1.62,10.43,10.43,0,0,1-.1,2.62c-.12.54-.38,1-.54,1.53a10.67,10.67,0,0,0-.27,1.77c-.05.35-.16.68-.22,1a6,6,0,0,0,.06,1.94,3.26,3.26,0,0,1-.44,1.85c-.38.77-.85,1.49-1.29,2.23a6.76,6.76,0,0,1-1.26,2,3.8,3.8,0,0,1-1.82.64,9.14,9.14,0,0,1-2.4.44,3.06,3.06,0,0,0-1.67.06A8.3,8.3,0,0,1,13,20a4.13,4.13,0,0,1-2.11-.26,2.12,2.12,0,0,1-1.37-.1,5.79,5.79,0,0,1-2.37-1.7,5.47,5.47,0,0,0-.62-1,6.8,6.8,0,0,0-1-.67,3.21,3.21,0,0,1-1-1c-.62-1.07-1.87-1.4-2.19-2.6-.22-.83-.64-1.94-.25-2.79a12.23,12.23,0,0,0,1-2,6.23,6.23,0,0,1,.56-1.64c.4-.67,1-1,1.2-1.83a2.85,2.85,0,0,1,.38-1.14,3.57,3.57,0,0,1,2.13-1,18.24,18.24,0,0,1,3.81-1A5.66,5.66,0,0,1,14,2a4.57,4.57,0,0,1,1.36,1.19l.17.19a5.51,5.51,0,0,1,.63.53c.26.18.54.34.83.53a3.12,3.12,0,0,1,1.34,2.36,6.45,6.45,0,0,1-.29,2.76A4.42,4.42,0,0,1,16.5,12,3.14,3.14,0,0,1,14,13a6.72,6.72,0,0,1-3.07-.63c-.78-.45-1.63-.85-1.79-1.81-.12-.73-.48-1.42,0-2.05a2.24,2.24,0,0,1,1.48-1,4.63,4.63,0,0,1,1.7,0c.57.14,1,.57,1.58.72l.06,0A.87.87,0,0,0,14.08,8a1,1,0,0,0,.07-.15C14.07,7,12.05,6.36,11.4,6.3A3.51,3.51,0,0,0,8.05,7.69a5.51,5.51,0,0,0-.39,2.9,4.47,4.47,0,0,0,2.16,3,5.49,5.49,0,0,0,6.26-.08,7.45,7.45,0,0,0,1.62-2.28,6.93,6.93,0,0,0,1.1-3.44,9.16,9.16,0,0,0-.66-3.21c-.41-1-1.29-1.41-1.94-2.22A7.23,7.23,0,0,0,11.31.11a13,13,0,0,0-3.12.2c-.37.06-.75,0-1.1,0A7.61,7.61,0,0,0,5.37,1c-.27.11-.54.13-.81.22a6.6,6.6,0,0,0-1.65,1c-.13.09-1.18.58-1.19.27a.22.22,0,0,1-.08.18,15.7,15.7,0,0,0-.56,1.49,2.43,2.43,0,0,1,.6,0,1.68,1.68,0,0,1,.64,2.88,16.35,16.35,0,0,1-1.76,1l-.19.16a14.9,14.9,0,0,0,2,8c.29.5.61,1,.94,1.43,1.13-.07,2.27-.27,3,.7A3.49,3.49,0,0,1,6.68,21a15.14,15.14,0,0,0,6.87,2.67A4.63,4.63,0,0,1,14.9,22Z"
          transform="translate(1.28 6.33)" />
        <path class="cls-8"
          d="M5.24-2.79C4.6-1.69,3.32-1.2,2.58-.19A26.59,26.59,0,0,0,1.34,2.39,16.33,16.33,0,0,0,.34,4c-.87,2.09.83,3.49,1,5.48.18,2.26-.77,3.37.91,5.49a18.53,18.53,0,0,1,2.4,3.73A3.74,3.74,0,0,0,7.83,21c.7.12,1.42.17,2.13.24a5.37,5.37,0,0,1,3.34,1.09,4.25,4.25,0,0,1,1,1.66,15.09,15.09,0,0,0,3.75-1.53A7.29,7.29,0,0,0,17.4,22,4.1,4.1,0,0,0,15.3,21a6.53,6.53,0,0,1-1.82-.7c-1.06-.41-1.8.3-2.8.21a8.23,8.23,0,0,1-1.94-.87,17.55,17.55,0,0,1-2.35-.59A2.81,2.81,0,0,1,5.31,17.8a10.55,10.55,0,0,1-1-2.41c-.13-.53-.1-1.07-.18-1.61a11.6,11.6,0,0,0-.52-1.71c-.11-.34-.16-.68-.25-1a5.65,5.65,0,0,0-.9-1.72A3.24,3.24,0,0,1,2,7.47c0-.86.12-1.71.19-2.57a6.62,6.62,0,0,1,.27-2.35A3.61,3.61,0,0,1,3.84,1.18a8.67,8.67,0,0,1,2-1.44A3.21,3.21,0,0,0,7.28-1a7,7,0,0,1,.61-.72,4.21,4.21,0,0,1,2-.69,2.1,2.1,0,0,1,1.28-.5,5.76,5.76,0,0,1,2.87.51,5.77,5.77,0,0,0,1,.64,6.07,6.07,0,0,0,1.2.16,3.15,3.15,0,0,1,1.35.52c1,.69,2.29.45,3.1,1.39.56.66,1.42,1.48,1.43,2.41a12.21,12.21,0,0,0,0,2.18,5.91,5.91,0,0,1,.2,1.72,6.85,6.85,0,0,0-.28,2.17A3,3,0,0,1,22.2,10a3.58,3.58,0,0,1-1.48,1.85,18.28,18.28,0,0,1-3,2.58,5.73,5.73,0,0,1-3,.51A4.48,4.48,0,0,1,13,14.41l-.24-.1a5.38,5.38,0,0,1-.79-.2c-.31,0-.63-.07-1-.12a3.09,3.09,0,0,1-2.23-1.55,6.4,6.4,0,0,1-.93-2.6,4.34,4.34,0,0,1,.33-2.9c.48-1,.79-1.64,1.85-2a6.65,6.65,0,0,1,3-.77c.9.07,1.84.06,2.4.86.43.6,1.05,1.07.92,1.83a2.28,2.28,0,0,1-.88,1.58,4.67,4.67,0,0,1-1.53.76c-.58.12-1.15-.09-1.73,0h-.06a.55.55,0,0,0-.08.29.49.49,0,0,0,0,.17c.42.69,2.53.42,3.14.19a3.54,3.54,0,0,0,2.42-2.7,5.6,5.6,0,0,0-.91-2.79,4.45,4.45,0,0,0-3.26-1.78,5.47,5.47,0,0,0-5.6,2.78,7.75,7.75,0,0,0-.48,2.76,7,7,0,0,0,.5,3.57,9.38,9.38,0,0,0,2,2.61c.8.73,1.78.71,2.71,1.16a7.26,7.26,0,0,0,5.4-.07,13.47,13.47,0,0,0,2.72-1.53c.3-.22.69-.29,1-.49A8.11,8.11,0,0,0,22.94,12c.2-.22.43-.35.63-.55a6.44,6.44,0,0,0,1.07-1.59c.09-.13.81-1,1-.75a.21.21,0,0,1,0-.2,14.22,14.22,0,0,0-.14-1.59,1.92,1.92,0,0,1-.56.22,1.69,1.69,0,0,1-1.83-2.31A15.88,15.88,0,0,1,24.2,3.54a2.29,2.29,0,0,0,.1-.23A15,15,0,0,0,19.06-3a13.92,13.92,0,0,0-1.47-.88c-1,.55-1.92,1.22-3,.68A3.45,3.45,0,0,1,13.1-5.42a15,15,0,0,0-7.35.57A4.68,4.68,0,0,1,5.24-2.79Z"
          transform="translate(1.28 6.33)" />
      </g>
      <circle class="cls-9" cx="13.23" cy="18.38" r="11.95" />
      <circle class="cls-10" cx="13.23" cy="18.38" r="11.95" />
      <circle class="cls-10" cx="13.23" cy="18.38" r="11.95" />
      <circle class="cls-10" cx="13.23" cy="18.38" r="11.95" />
    </g>
  </g>
</svg>
